<?xml version="1.0" encoding="UTF-8"?>
<svg version="1.1" xmlns="http://www.w3.org/2000/svg" width="520" height="520">
<path d="M0 0 C171.6 0 343.2 0 520 0 C520 171.6 520 343.2 520 520 C348.4 520 176.8 520 0 520 C0 348.4 0 176.8 0 0 Z " fill="#FCFCFC" transform="translate(0,0)"/>
<path d="M0 0 C3.88656356 4.21044386 5.3782322 6.99000954 5.2734375 12.78515625 C4.37562745 20.05741768 -0.47558881 25.56569002 -6 30 C-8.37631002 31.70969774 -10.79869509 33.33752581 -13.25 34.9375 C-14.17208252 35.5406604 -14.17208252 35.5406604 -15.11279297 36.15600586 C-19.62182091 39 -19.62182091 39 -23 39 C-23 39.66 -23 40.32 -23 41 C-22.319375 40.97679687 -21.63875 40.95359375 -20.9375 40.9296875 C-9.09377922 40.7091927 2.37999517 42.19810938 13.875 44.9375 C14.55916992 45.09508789 15.24333984 45.25267578 15.94824219 45.41503906 C19.69222196 46.36580034 20.77643732 46.66465597 23 50 C23.4572599 54.64880901 23.46763963 57.02730956 21.4375 61.25 C17.1431956 66.09485624 12.17172532 68.19364137 6 70 C6.72316406 70.70576172 6.72316406 70.70576172 7.4609375 71.42578125 C8.09257812 72.04839844 8.72421875 72.67101562 9.375 73.3125 C10.00148438 73.92738281 10.62796875 74.54226562 11.2734375 75.17578125 C13.74008707 77.7819472 15.01725595 79.2062265 14.9375 82.875 C13.60692756 87.31024145 11.08256027 89.73369746 7.15625 92.12109375 C1.09611458 94.59125764 -6.37831515 93.42929916 -12.36328125 91.18359375 C-16.63610237 89.26557183 -20.79643015 87.1274118 -24.96411133 84.9921875 C-34.0738231 80.04362074 -34.0738231 80.04362074 -44 78 C-45.33786362 79.35861181 -45.33786362 79.35861181 -46.6875 81.125 C-49.29596804 84.29470322 -52.04515452 86.84238459 -55.2890625 89.34765625 C-58.79661825 92.73509023 -60.81080252 95.72291701 -61.53125 100.5859375 C-61.45987503 109.24015237 -61.23877694 115.28232279 -55.375 121.80859375 C-50.88904886 125.85529551 -46.70391392 126.9994406 -40.7265625 126.7421875 C-35.77555004 125.7561368 -31.34582963 123.91241068 -26.6875 122 C-15.98292121 117.61515212 -6.75188289 115.64185271 4.5625 119.6875 C10.35929534 122.42220079 15.39932723 125.93176354 18 132 C18.5 135.5 18.5 135.5 18 139 C14.506343 143.27243772 10.96474521 145.140499 5.8125 146.76171875 C4.38637857 147.24084179 2.96027239 147.72001022 1.53417969 148.19921875 C0.42254456 148.56345947 0.42254456 148.56345947 -0.71154785 148.93505859 C-11.80098188 152.58125646 -22.73123563 156.40037446 -33.25 161.5 C-34.06855469 161.89662842 -34.88710938 162.29325684 -35.73046875 162.7019043 C-39.10403191 164.38760461 -42.31060697 166.14716724 -45.421875 168.28125 C-48 170 -48 170 -50 170 C-50 170.66 -50 171.32 -50 172 C-49.0527002 172.04487549 -48.10540039 172.08975098 -47.12939453 172.13598633 C-43.56895623 172.30799135 -40.00954218 172.49651646 -36.45019531 172.68969727 C-34.91819547 172.77060822 -33.38596116 172.84721195 -31.85351562 172.91918945 C-16.32102483 173.65424532 -16.32102483 173.65424532 -9.07373047 176.4831543 C-6.34823299 177.16244299 -4.66609906 176.85691311 -2 176 C-0.08833851 174.58610989 -0.08833851 174.58610989 1.55859375 172.7265625 C2.50895508 171.7365625 2.50895508 171.7365625 3.47851562 170.7265625 C4.12498047 170.03304687 4.77144531 169.33953125 5.4375 168.625 C14.84095178 158.58962116 14.84095178 158.58962116 21.5625 157.63671875 C22.7690625 157.66185547 22.7690625 157.66185547 24 157.6875 C25.29550781 157.71263672 25.29550781 157.71263672 26.6171875 157.73828125 C29 158 29 158 32.125 159.375 C34.93533312 160.32104929 34.93533312 160.32104929 36.9296875 158.90234375 C38.99624481 157.3153837 41.00049166 155.67032099 43 154 C48.49197584 150.25547102 54.54312316 150.1135916 61 151 C63.58318656 152.28595313 65.49294218 153.4143348 67.38427734 155.59887695 C68.89477219 157.17111993 68.89477219 157.17111993 70.95776367 157.24536133 C71.68713135 157.1914624 72.41649902 157.13756348 73.16796875 157.08203125 C73.97572754 157.04126465 74.78348633 157.00049805 75.61572266 156.95849609 C76.46440918 156.91031738 77.3130957 156.86213867 78.1875 156.8125 C88.66193137 156.47651655 88.66193137 156.47651655 93.125 159.875 C96.21952902 162.82692399 97.1749155 164.9921217 97.3125 169.25 C97.12825827 178.90733724 87.68363206 186.43681368 81.1328125 192.7734375 C75.54059319 198.00469115 69.74702744 202.95743501 63.7734375 207.75 C61.85834627 209.30365148 59.96894482 210.88931983 58.1015625 212.5 C48.06577978 221.13972895 37.07969552 227.48365463 25.51074219 233.78149414 C20.82840798 236.35307574 16.25138254 239.05186474 11.7109375 241.8671875 C10.62071289 242.53935303 9.53048828 243.21151855 8.40722656 243.90405273 C6.27323383 245.22613139 4.14705831 246.56094169 2.03027344 247.91040039 C0.53415527 248.83453735 0.53415527 248.83453735 -0.9921875 249.77734375 C-1.86214355 250.32640381 -2.73209961 250.87546387 -3.62841797 251.44116211 C-13.49933472 256.00494223 -23.33264305 256.38795524 -34.00743294 256.19492912 C-36.46884857 256.1513035 -38.92973334 256.1284903 -41.39146423 256.11073303 C-47.49909189 256.06309441 -53.60623934 255.98612145 -59.71343994 255.90020752 C-64.89487132 255.827398 -70.07593895 255.77080455 -75.25778008 255.73730659 C-77.66375326 255.71538054 -80.06852611 255.66993356 -82.47413635 255.62376404 C-95.69545737 255.47382035 -107.06784136 258.30614655 -116.8203125 267.765625 C-121.52569842 272.99383158 -123.28751829 277.3718853 -123.3125 284.5 C-123.32925781 285.6034375 -123.34601563 286.706875 -123.36328125 287.84375 C-122.93943525 291.52619692 -122.39339687 293.16285697 -120 296 C-117.45393234 297.64255195 -114.77357928 298.85371978 -112 300.0625 C-111.23107422 300.40829102 -110.46214844 300.75408203 -109.66992188 301.11035156 C-107.45515625 302.09500177 -105.23133097 303.05358245 -103 304 C-102.0203125 304.41636719 -101.040625 304.83273437 -100.03125 305.26171875 C-91.9612247 308.41251567 -83.45850487 310.21786218 -75 312 C-74.23252441 312.18167725 -73.46504883 312.36335449 -72.67431641 312.55053711 C-64.43472097 314.32430593 -56.25771171 314.33791068 -47.86865234 314.31567383 C-45.40025847 314.31253215 -42.9330888 314.33598124 -40.46484375 314.36132812 C-26.13283234 314.41931189 -12.53252188 312.39139221 1.25 308.375 C2.11858643 308.12194092 2.98717285 307.86888184 3.88208008 307.6081543 C47.23626245 294.46898781 80.4212044 265.46296138 102.03076172 226.12353516 C122.35732292 187.8186459 125.1396654 142.96952678 112.90039062 101.81738281 C110.49869893 94.30232798 107.39687134 87.11300969 104 80 C103.67773438 79.32501465 103.35546875 78.6500293 103.0234375 77.95458984 C97.96912849 67.57116946 91.82998495 56.83957374 83.625 48.62109375 C81.63652434 45.41372075 81.95317825 43.49923697 82.71484375 39.87304688 C82.89144531 39.15181641 83.06804687 38.43058594 83.25 37.6875 C83.41113281 36.94693359 83.57226562 36.20636719 83.73828125 35.44335938 C84.13735412 33.6240566 84.56581238 31.81124345 85 30 C89.19508436 31.54760653 91.43073521 34.62630899 94.0625 38.0625 C94.77660034 38.98699951 94.77660034 38.98699951 95.50512695 39.93017578 C124.09176733 77.54195315 138.94446782 123.45561343 133.25 170.875 C132.85052564 173.25295213 132.4326697 175.62786319 132 178 C131.77362033 179.55042964 131.54984533 181.10124094 131.328125 182.65234375 C127.1222716 209.97196723 114.85280402 236.20334262 98 258 C97.31808594 258.90492188 96.63617188 259.80984375 95.93359375 260.7421875 C66.97148723 297.78290818 25.00874714 319.98563177 -21 327 C-22.09763672 327.1750708 -23.19527344 327.3501416 -24.32617188 327.53051758 C-56.05885313 331.58567083 -88.29674567 326.22407409 -117.25 312.9375 C-118.2874939 312.46316528 -118.2874939 312.46316528 -119.34594727 311.97924805 C-126.39667521 308.593266 -131.73279977 304.45161543 -135.078125 297.20703125 C-137.47268742 288.87679504 -137.68917942 278.48627662 -134.0625 270.5 C-125.92561372 257.24327516 -114.91570478 249.8422225 -100 246 C-94.76771462 245.10450775 -89.74756853 244.85300022 -84.4609375 244.8671875 C-83.65822418 244.86623077 -82.85551086 244.86527405 -82.0284729 244.86428833 C-80.33587566 244.86361104 -78.64327577 244.86543373 -76.95068359 244.86962891 C-74.40325849 244.87494107 -71.85601313 244.86969047 -69.30859375 244.86328125 C-61.15305383 244.85999487 -53.09788298 245.03891971 -44.96777344 245.75537109 C-39.95956415 246.16818992 -34.96064882 246.30243974 -29.9375 246.375 C-28.95201172 246.41238281 -27.96652344 246.44976562 -26.95117188 246.48828125 C-14.61902585 246.63346021 -4.98042265 240.70477466 5.3125 234.5 C7.4090879 233.25210956 9.5067737 232.00606213 11.60546875 230.76171875 C12.6629834 230.13442871 13.72049805 229.50713867 14.81005859 228.86083984 C18.8937229 226.47865024 23.0339582 224.20821923 27.17895508 221.93505859 C37.24305421 216.3921728 46.29772021 210.48769365 55 203 C56.11480566 202.06121629 57.23070736 201.12373271 58.34765625 200.1875 C60.53889055 198.34617484 62.7200523 196.49388314 64.89453125 194.6328125 C67.84420349 192.11661783 70.85470418 189.68107031 73.875 187.25 C82.81878499 180.26748549 82.81878499 180.26748549 89 171 C88.51617907 168.69863938 88.51617907 168.69863938 87 167 C80.41649915 164.80549972 74.60149189 165.35196455 68.3125 168.25 C62.55070245 171.36728021 57.66817034 175.31593079 52.63574219 179.46264648 C43.61870332 186.85932852 28.26313095 199 16 199 C16 196.36 16 193.72 16 191 C17.02738281 190.50371094 18.05476562 190.00742187 19.11328125 189.49609375 C33.33505556 182.55918906 45.36449487 174.35914117 57.47875977 164.19580078 C59 163 59 163 61 162 C61.33 161.01 61.66 160.02 62 159 C53.31995169 158.10889238 47.8291882 159.5322927 41 165 C38.53053745 167.38346136 36.1605995 169.84351576 33.7890625 172.32421875 C30.59071204 175.39266422 27.22564333 177.98954418 23.625 180.5625 C23.02977539 180.99208008 22.43455078 181.42166016 21.82128906 181.86425781 C18.96502487 183.86088543 16.49418064 185.50943769 13 186 C12.01 183.525 12.01 183.525 11 181 C12.35544922 179.75283203 12.35544922 179.75283203 13.73828125 178.48046875 C14.92971816 177.38284577 16.12112271 176.28518768 17.3125 175.1875 C17.90740234 174.64029297 18.50230469 174.09308594 19.11523438 173.52929688 C19.69208984 172.99755859 20.26894531 172.46582031 20.86328125 171.91796875 C21.39219971 171.43094482 21.92111816 170.9439209 22.46606445 170.44213867 C24.0092835 168.99127207 25.51015856 167.50546232 27 166 C22.37581193 165.42197649 19.90652892 165.69043032 16.125 168.5 C12.24609121 171.66676538 8.54835639 175.05083221 4.8828125 178.4609375 C3 180 3 180 1 180 C1.74056641 181.04800781 1.74056641 181.04800781 2.49609375 182.1171875 C3.45708984 183.48230469 3.45708984 183.48230469 4.4375 184.875 C5.07558594 185.77992188 5.71367187 186.68484375 6.37109375 187.6171875 C9.7626956 192.57852354 9.56479215 197.10547913 9 203 C7.64005861 207.70151168 5.77022302 210.38696535 1.9375 213.4375 C-2.24821637 215.66394488 -5.21971488 216.13197545 -9.90161133 216.17358398 C-11.72545097 216.19381874 -11.72545097 216.19381874 -13.58613586 216.21446228 C-15.56410408 216.23011986 -15.56410408 216.23011986 -17.58203125 216.24609375 C-18.95668813 216.26161445 -20.33133738 216.27782534 -21.70597839 216.29469299 C-27.5346071 216.36516569 -33.36331517 216.42498184 -39.19213867 216.47680664 C-42.76189968 216.50902175 -46.33146686 216.55041308 -49.90106773 216.59700203 C-51.89579412 216.62037618 -53.89063096 216.63364379 -55.88545227 216.64659119 C-64.43262954 216.76033329 -72.57231409 217.58904971 -81 219 C-69.48501033 207.27234811 -51.92703348 208.03749668 -36.47265625 207.7890625 C-35.6292569 207.77471664 -34.78585754 207.76037079 -33.91690063 207.74559021 C-30.4048532 207.68802346 -26.89297386 207.63316488 -23.38061523 207.59863281 C-20.78591085 207.57104728 -18.19203895 207.5252539 -15.59765625 207.4765625 C-14.80802994 207.47330963 -14.01840363 207.47005676 -13.20484924 207.46670532 C-8.65064057 207.36498331 -5.61442204 206.84709266 -2 204 C-0.42544261 200.85088521 -0.65200882 198.47991184 -1 195 C-4.60172447 188.87706839 -9.43357392 187.17025947 -16 185 C-16.99 184.67 -17.98 184.34 -19 184 C-20.82716034 183.88496778 -22.65779477 183.82172033 -24.48828125 183.7890625 C-43.03782804 183.34818901 -58.29420142 180.41621795 -75.8984375 174.62109375 C-77.5978872 174.07736984 -79.29832232 173.5367104 -81 173 C-81.65444092 172.78666016 -82.30888184 172.57332031 -82.9831543 172.35351562 C-99.89813219 167.4099212 -121.27501307 169.88455019 -136.8125 177.75 C-148.96275254 184.93543909 -157.73418972 194.16786445 -164.875 206.25 C-165.38820801 207.1155249 -165.90141602 207.9810498 -166.43017578 208.87280273 C-180.733909 233.48723634 -188.90289413 259.5509099 -190 288 C-192 287 -192 287 -192.61230469 285.36425781 C-195.15047394 269.88590076 -194.39053839 249.92449173 -190 235 C-189.81195801 234.34676758 -189.62391602 233.69353516 -189.43017578 233.02050781 C-181.49734382 206.19907913 -165.58512179 182.11332698 -141.23828125 167.72265625 C-136.63751676 165.27520493 -132.01691461 163.39974689 -127 162 C-126.06414062 161.7361853 -126.06414062 161.7361853 -125.109375 161.46704102 C-118.57511998 159.80314388 -112.21847762 159.65396925 -105.5 159.6875 C-104.35523193 159.69168945 -103.21046387 159.69587891 -102.03100586 159.70019531 C-89.58451438 159.86471337 -77.8728532 161.21016562 -66.39453125 166.328125 C-61.03425317 167.83215082 -56.59710126 165.50507584 -51.94921875 162.9375 C-50.77649424 162.302305 -49.60329687 161.66798243 -48.4296875 161.03442383 C-47.51461426 160.53575302 -47.51461426 160.53575302 -46.58105469 160.02700806 C-32.82842716 152.56798965 -18.91815059 146.7807743 -4 142 C-2.86135498 141.6272998 -2.86135498 141.6272998 -1.69970703 141.24707031 C8.23595328 138 8.23595328 138 11 138 C9.57519561 133.64177481 8.61177377 130.97114575 4.5625 128.625 C-2.72011296 125.30310637 -10.19615201 124.5119108 -17.84375 127.26953125 C-20.4301578 128.28311921 -22.97726654 129.37307352 -25.51953125 130.4921875 C-34.47204219 134.37060414 -43.94940312 135.69043142 -53.57421875 133.3828125 C-59.99411767 130.53232693 -65.01384611 124.64297576 -67.875 118.3125 C-70.66146857 110.10789811 -71.75752167 100.97143035 -68.125 92.875 C-64.79391044 86.96469538 -59.92450174 82.57824771 -55 78 C-51.39339225 74.42343142 -51.39339225 74.42343142 -48.0234375 70.62890625 C-46 69 -46 69 -43.4765625 69.08984375 C-42.06503906 69.50943359 -42.06503906 69.50943359 -40.625 69.9375 C-39.03171875 70.40929687 -39.03171875 70.40929687 -37.40625 70.890625 C-36.2821875 71.25671875 -35.158125 71.6228125 -34 72 C-32.8759375 72.34546875 -31.751875 72.6909375 -30.59375 73.046875 C-22.76734841 75.62042147 -16.15456872 79.01815623 -9.25390625 83.42578125 C-4.60415522 85.67530066 -0.91516823 85.65197216 3.9375 84 C4.618125 83.67 5.29875 83.34 6 83 C4.50114652 79.40275165 2.45875838 77.32651146 -0.4375 74.75 C-1.21996094 74.04359375 -2.00242187 73.3371875 -2.80859375 72.609375 C-11.13624216 65.63739029 -19.82961694 60.17127757 -29.625 55.5 C-30.69234375 54.96375 -31.7596875 54.4275 -32.859375 53.875 C-41.58348529 49.64289635 -41.58348529 49.64289635 -51 50 C-55.19098699 51.78869061 -59.03563911 54.03075741 -62.9375 56.375 C-65.15071002 57.66333032 -67.36425421 58.95108673 -69.578125 60.23828125 C-71.20524414 61.19661865 -71.20524414 61.19661865 -72.86523438 62.17431641 C-77.95820177 65.14045427 -83.14456512 67.9353248 -88.34155273 70.71435547 C-95.59993176 74.68626999 -100.49531025 79.02527641 -104.5 86.25 C-104.91378906 86.9723584 -105.32757813 87.6947168 -105.75390625 88.43896484 C-108.34607538 92.98565217 -110.8709552 97.56987659 -113.40625 102.1484375 C-135.99364863 142.90033281 -135.99364863 142.90033281 -155 157 C-156.05574219 157.81210937 -156.05574219 157.81210937 -157.1328125 158.640625 C-169.62221134 167.66338462 -185.60759439 173.79010447 -201 173 C-198.56253146 170.56253146 -196.5631072 170.01851004 -193.3125 168.875 C-180.62389594 164.08526204 -169.53377659 157.58251262 -159 149 C-158.22269531 148.38769531 -157.44539063 147.77539062 -156.64453125 147.14453125 C-141.5597206 134.62280347 -132.44718175 116.59842385 -122.9296875 99.84375 C-122.57861435 99.22654083 -122.2275412 98.60933167 -121.86582947 97.97341919 C-120.13359411 94.92689218 -118.40741586 91.87730373 -116.69458008 88.81982422 C-109.30355051 75.73685234 -101.07192114 65.67665319 -90.375 55.25 C-88.54514759 53.45546732 -86.71758585 51.65868402 -84.89273071 49.85906982 C-83.76628215 48.74931391 -82.63675066 47.64267465 -81.50350952 46.53985596 C-78.98576238 44.06957835 -76.61745005 41.58602789 -74.40576172 38.83618164 C-68.3189505 31.66036614 -59.53464446 27.48325593 -51.25 23.3125 C-49.22691018 22.2766014 -47.2047999 21.2387879 -45.18359375 20.19921875 C-44.16120605 19.67376465 -43.13881836 19.14831055 -42.08544922 18.60693359 C-37.12010542 16.02093162 -32.21748028 13.32322597 -27.3125 10.625 C-24.65436597 9.17238855 -21.99504241 7.7219909 -19.33496094 6.27294922 C-17.87594529 5.47753856 -16.41806677 4.68003432 -14.96191406 3.87939453 C-13.29495851 2.96759743 -11.61677366 2.07640647 -9.9375 1.1875 C-9.08027344 0.72730469 -8.22304688 0.26710938 -7.33984375 -0.20703125 C-4.44763742 -1.18719466 -2.87399687 -0.97244115 0 0 Z " fill="#335679" transform="translate(304,106)"/>
<path d="M0 0 C4.19508436 1.54760653 6.43073521 4.62630899 9.0625 8.0625 C9.77660034 8.98699951 9.77660034 8.98699951 10.50512695 9.93017578 C39.09176733 47.54195315 53.94446782 93.45561343 48.25 140.875 C47.85052564 143.25295213 47.4326697 145.62786319 47 148 C46.77362033 149.55042964 46.54984533 151.10124094 46.328125 152.65234375 C42.1222716 179.97196723 29.85280402 206.20334262 13 228 C12.31808594 228.90492188 11.63617188 229.80984375 10.93359375 230.7421875 C-18.02851277 267.78290818 -59.99125286 289.98563177 -106 297 C-107.09763672 297.1750708 -108.19527344 297.3501416 -109.32617188 297.53051758 C-141.05885313 301.58567083 -173.29674567 296.22407409 -202.25 282.9375 C-202.9416626 282.62127686 -203.6333252 282.30505371 -204.34594727 281.97924805 C-211.39667521 278.593266 -216.73279977 274.45161543 -220.078125 267.20703125 C-222.47268742 258.87679504 -222.68917942 248.48627662 -219.0625 240.5 C-210.92561372 227.24327516 -199.91570478 219.8422225 -185 216 C-179.76771462 215.10450775 -174.74756853 214.85300022 -169.4609375 214.8671875 C-168.65822418 214.86623077 -167.85551086 214.86527405 -167.0284729 214.86428833 C-165.33587566 214.86361104 -163.64327577 214.86543373 -161.95068359 214.86962891 C-159.40325849 214.87494107 -156.85601313 214.86969047 -154.30859375 214.86328125 C-146.15305383 214.85999487 -138.09788298 215.03891971 -129.96777344 215.75537109 C-124.95956415 216.16818992 -119.96064882 216.30243974 -114.9375 216.375 C-113.95201172 216.41238281 -112.96652344 216.44976562 -111.95117188 216.48828125 C-99.61902585 216.63346021 -89.98042265 210.70477466 -79.6875 204.5 C-77.5909121 203.25210956 -75.4932263 202.00606213 -73.39453125 200.76171875 C-72.3370166 200.13442871 -71.27950195 199.50713867 -70.18994141 198.86083984 C-66.1062771 196.47865024 -61.9660418 194.20821923 -57.82104492 191.93505859 C-47.75694579 186.3921728 -38.70227979 180.48769365 -30 173 C-28.88519434 172.06121629 -27.76929264 171.12373271 -26.65234375 170.1875 C-24.46110945 168.34617484 -22.2799477 166.49388314 -20.10546875 164.6328125 C-17.15579651 162.11661783 -14.14529582 159.68107031 -11.125 157.25 C-2.18121501 150.26748549 -2.18121501 150.26748549 4 141 C3.51617907 138.69863938 3.51617907 138.69863938 2 137 C-4.58350085 134.80549972 -10.39850811 135.35196455 -16.6875 138.25 C-22.44929755 141.36728021 -27.33182966 145.31593079 -32.36425781 149.46264648 C-41.38129668 156.85932852 -56.73686905 169 -69 169 C-69 166.36 -69 163.72 -69 161 C-67.97261719 160.50371094 -66.94523438 160.00742187 -65.88671875 159.49609375 C-51.66494444 152.55918906 -39.63550513 144.35914117 -27.52124023 134.19580078 C-26 133 -26 133 -24 132 C-23.67 131.01 -23.34 130.02 -23 129 C-31.68004831 128.10889238 -37.1708118 129.5322927 -44 135 C-46.46946255 137.38346136 -48.8394005 139.84351576 -51.2109375 142.32421875 C-54.40928796 145.39266422 -57.77435667 147.98954418 -61.375 150.5625 C-61.97022461 150.99208008 -62.56544922 151.42166016 -63.17871094 151.86425781 C-66.03497513 153.86088543 -68.50581936 155.50943769 -72 156 C-72.99 153.525 -72.99 153.525 -74 151 C-72.64455078 149.75283203 -72.64455078 149.75283203 -71.26171875 148.48046875 C-70.07028184 147.38284577 -68.87887729 146.28518768 -67.6875 145.1875 C-67.09259766 144.64029297 -66.49769531 144.09308594 -65.88476562 143.52929688 C-65.30791016 142.99755859 -64.73105469 142.46582031 -64.13671875 141.91796875 C-63.60780029 141.43094482 -63.07888184 140.9439209 -62.53393555 140.44213867 C-60.9907165 138.99127207 -59.48984144 137.50546232 -58 136 C-62.62418807 135.42197649 -65.09347108 135.69043032 -68.875 138.5 C-70.26966875 139.64308145 -71.64321866 140.81219509 -73 142 C-74.24136719 143.07894531 -74.24136719 143.07894531 -75.5078125 144.1796875 C-77.68942168 146.10141847 -79.85195805 148.04090619 -82 150 C-83.32 149.34 -84.64 148.68 -86 148 C-86 144.44823104 -85.55155707 144.16794928 -83.1484375 141.75 C-82.54386719 141.1415625 -81.93929687 140.533125 -81.31640625 139.90625 C-80.67574219 139.2771875 -80.03507813 138.648125 -79.375 138 C-78.75753906 137.3709375 -78.14007813 136.741875 -77.50390625 136.09375 C-73.3302938 131.9464972 -69.47729745 128.49297052 -63.4375 127.63671875 C-62.2309375 127.66185547 -62.2309375 127.66185547 -61 127.6875 C-59.70449219 127.71263672 -59.70449219 127.71263672 -58.3828125 127.73828125 C-56 128 -56 128 -52.875 129.375 C-50.06466688 130.32104929 -50.06466688 130.32104929 -48.0703125 128.90234375 C-46.00375519 127.3153837 -43.99950834 125.67032099 -42 124 C-36.50802416 120.25547102 -30.45687684 120.1135916 -24 121 C-21.41681344 122.28595313 -19.50705782 123.4143348 -17.61572266 125.59887695 C-16.10522781 127.17111993 -16.10522781 127.17111993 -14.04223633 127.24536133 C-13.31286865 127.1914624 -12.58350098 127.13756348 -11.83203125 127.08203125 C-11.02427246 127.04126465 -10.21651367 127.00049805 -9.38427734 126.95849609 C-8.53559082 126.91031738 -7.6869043 126.86213867 -6.8125 126.8125 C3.66193137 126.47651655 3.66193137 126.47651655 8.125 129.875 C11.21952902 132.82692399 12.1749155 134.9921217 12.3125 139.25 C12.12825827 148.90733724 2.68363206 156.43681368 -3.8671875 162.7734375 C-9.45940681 168.00469115 -15.25297256 172.95743501 -21.2265625 177.75 C-23.14165373 179.30365148 -25.03105518 180.88931983 -26.8984375 182.5 C-36.93422022 191.13972895 -47.92030448 197.48365463 -59.48925781 203.78149414 C-64.17159202 206.35307574 -68.74861746 209.05186474 -73.2890625 211.8671875 C-74.37928711 212.53935303 -75.46951172 213.21151855 -76.59277344 213.90405273 C-78.72676617 215.22613139 -80.85294169 216.56094169 -82.96972656 217.91040039 C-84.46584473 218.83453735 -84.46584473 218.83453735 -85.9921875 219.77734375 C-86.86214355 220.32640381 -87.73209961 220.87546387 -88.62841797 221.44116211 C-98.49933472 226.00494223 -108.33264305 226.38795524 -119.00743294 226.19492912 C-121.46884857 226.1513035 -123.92973334 226.1284903 -126.39146423 226.11073303 C-132.49909189 226.06309441 -138.60623934 225.98612145 -144.71343994 225.90020752 C-149.89487132 225.827398 -155.07593895 225.77080455 -160.25778008 225.73730659 C-162.66375326 225.71538054 -165.06852611 225.66993356 -167.47413635 225.62376404 C-180.69545737 225.47382035 -192.06784136 228.30614655 -201.8203125 237.765625 C-206.52569842 242.99383158 -208.28751829 247.3718853 -208.3125 254.5 C-208.32925781 255.6034375 -208.34601563 256.706875 -208.36328125 257.84375 C-207.93943525 261.52619692 -207.39339687 263.16285697 -205 266 C-202.45393234 267.64255195 -199.77357928 268.85371978 -197 270.0625 C-196.23107422 270.40829102 -195.46214844 270.75408203 -194.66992188 271.11035156 C-192.45515625 272.09500177 -190.23133097 273.05358245 -188 274 C-186.53046875 274.62455078 -186.53046875 274.62455078 -185.03125 275.26171875 C-176.9612247 278.41251567 -168.45850487 280.21786218 -160 282 C-159.23252441 282.18167725 -158.46504883 282.36335449 -157.67431641 282.55053711 C-149.43472097 284.32430593 -141.25771171 284.33791068 -132.86865234 284.31567383 C-130.40025847 284.31253215 -127.9330888 284.33598124 -125.46484375 284.36132812 C-111.13283234 284.41931189 -97.53252188 282.39139221 -83.75 278.375 C-82.88141357 278.12194092 -82.01282715 277.86888184 -81.11791992 277.6081543 C-37.76373755 264.46898781 -4.5787956 235.46296138 17.03076172 196.12353516 C37.35732292 157.8186459 40.1396654 112.96952678 27.90039062 71.81738281 C25.49869893 64.30232798 22.39687134 57.11300969 19 50 C18.67773438 49.32501465 18.35546875 48.6500293 18.0234375 47.95458984 C12.96912849 37.57116946 6.82998495 26.83957374 -1.375 18.62109375 C-3.36347566 15.41372075 -3.04682175 13.49923697 -2.28515625 9.87304688 C-2.10855469 9.15181641 -1.93195313 8.43058594 -1.75 7.6875 C-1.58886719 6.94693359 -1.42773438 6.20636719 -1.26171875 5.44335938 C-0.86264588 3.6240566 -0.43418762 1.81124345 0 0 Z " fill="#325478" transform="translate(389,136)"/>
<path d="M0 0 C4.38366531 4.0573637 8.70180131 8.45571565 11.0234375 14.046875 C9.60625038 13.79984238 8.18975288 13.54885749 6.7734375 13.296875 C5.23429687 13.03003906 5.23429687 13.03003906 3.6640625 12.7578125 C1.08229553 12.25364771 -1.39384473 11.69211074 -3.9296875 11.0234375 C-41.50001148 1.61623608 -83.58632125 9.16834147 -116.9765625 28.046875 C-117.60852539 28.39862793 -118.24048828 28.75038086 -118.89160156 29.11279297 C-138.11200576 39.89579835 -155.82411084 54.25831011 -168.9765625 72.046875 C-169.71132812 73.03945312 -170.44609375 74.03203125 -171.203125 75.0546875 C-196.35007356 110.22584923 -208.22628138 152.95783155 -201.73046875 196.06640625 C-199.37080239 209.01304262 -196.27404722 221.41989658 -191.015625 233.50390625 C-189.1829438 239.75293576 -190.92028104 245.35327638 -192.5390625 251.546875 C-192.80847656 252.5884375 -193.07789063 253.63 -193.35546875 254.703125 C-193.56042969 255.4765625 -193.76539063 256.25 -193.9765625 257.046875 C-194.6365625 257.046875 -195.2965625 257.046875 -195.9765625 257.046875 C-207.89804253 233.39314478 -216.23744113 208.76895539 -216.9765625 182.046875 C-217.01297852 181.21478516 -217.04939453 180.38269531 -217.08691406 179.52539062 C-219.10559184 130.22894 -200.16568803 85.93336479 -167.50292969 49.69140625 C-137.46720894 17.33046336 -43.0553246 -35.2094966 0 0 Z " fill="#315277" transform="translate(294.9765625,83.953125)"/>
<path d="M0 0 C10.25614815 1.94429349 18.77115974 9.97944836 26 17 C26.69867188 17.62519531 27.39734375 18.25039063 28.1171875 18.89453125 C43.61086882 33.21262196 51.97518018 56.60468209 53.12646484 77.27001953 C53.49521298 88.61665811 52.80547345 98.96078817 50 110 C49.79503906 110.92554688 49.59007812 111.85109375 49.37890625 112.8046875 C45.2514013 130.08380759 35.90471904 146.92157627 24 160 C23.34 160.33 22.68 160.66 22 161 C23.16970996 157.96116588 24.44659945 154.98929643 25.8046875 152.03125 C29.87364799 143.15467732 33.46123224 134.4523764 36 125 C36.37125 123.88367188 36.7425 122.76734375 37.125 121.6171875 C45.81678427 92.22205598 40.16492464 59.38739132 25.85498047 32.87890625 C20.83348458 23.88668185 14.95910045 16.21991717 7.76171875 8.8671875 C5.00966066 6.01002959 2.50351079 3.07352691 0 0 Z " fill="#F1BE65" transform="translate(323,31)"/>
<path d="M0 0 C18.94917895 5.36893404 33.3790598 18.40123812 42.90234375 35.39453125 C53.99141102 56.78306867 54.2493339 79.09219369 47.3125 101.9375 C45.52389327 107.03189739 43.26050709 111.85163604 40.875 116.6875 C40.52606689 117.39575928 40.17713379 118.10401855 39.81762695 118.83374023 C37.25290792 123.87354604 37.25290792 123.87354604 35 125 C35.18175781 124.47792969 35.36351562 123.95585937 35.55078125 123.41796875 C37.62620093 117.3407142 39.44033973 111.22987896 41 105 C41.20882812 104.21753906 41.41765625 103.43507813 41.6328125 102.62890625 C46.94167648 79.26242745 41.99629436 54.39903737 30 34 C29.44441406 33.0203125 28.88882812 32.040625 28.31640625 31.03125 C21.4739582 19.61076117 13.14559176 10.20430024 2.23828125 2.609375 C1.49964844 2.07828125 0.76101563 1.5471875 0 1 C0 0.67 0 0.34 0 0 Z " fill="#F1BE66" transform="translate(296,63)"/>
<path d="M0 0 C0.43090605 6.24813774 0.02595543 8.89695372 -4 14 C-6.16909172 15.78777369 -8.24792942 17.37435187 -10.5625 18.9375 C-11.17440186 19.36281006 -11.78630371 19.78812012 -12.41674805 20.22631836 C-17.19114872 23.52022705 -22.05954402 26.66468059 -26.98828125 29.72265625 C-28.91814257 30.84550518 -28.91814257 30.84550518 -30 32 C-31.80606338 32.15704899 -33.61257375 32.31008384 -35.4206543 32.44189453 C-45.39377964 33.24747816 -52.31612432 35.90229824 -61 41 C-62.91788107 42.10326269 -64.83819749 43.20218386 -66.7590332 44.30029297 C-68.52733267 45.31874832 -70.28359873 46.35801389 -72.0390625 47.3984375 C-74.46280998 48.70943548 -76.31436972 49.54147776 -79 50 C-62.59803746 30.39765452 -41.50516426 20.34754474 -19.14111328 8.7409668 C-18.33528809 8.32242432 -17.52946289 7.90388184 -16.69921875 7.47265625 C-15.92239746 7.06934082 -15.14557617 6.66602539 -14.34521484 6.25048828 C-11.15823451 4.55116356 -8.03610694 2.74336271 -4.92114258 0.91577148 C-3 0 -3 0 0 0 Z " fill="#F9FAFA" transform="translate(301,113)"/>
<path d="M0 0 C14.82686377 0.37441575 30.85275125 1.28425042 45 6 C44.80504041 9.50927259 44.20351779 10.79648221 41.6875 13.3125 C36.68751783 16.14936932 31.51954295 16.13856043 26 15 C21.00447492 12.89977925 16.44035954 9.9758234 11.85058594 7.12011719 C8.04135964 4.81447995 4.01336565 2.9198552 0 1 C0 0.67 0 0.34 0 0 Z " fill="#F4F5F6" transform="translate(275,153)"/>
<path d="M0 0 C0.99 0.33 1.98 0.66 3 1 C1.53967505 6.31027254 -0.98320986 10.46330032 -4 15 C-5 13 -5 13 -4.00390625 9.9609375 C-3.52824219 8.77757812 -3.05257813 7.59421875 -2.5625 6.375 C-2.08941406 5.18648437 -1.61632812 3.99796875 -1.12890625 2.7734375 C-0.75636719 1.85820312 -0.38382812 0.94296875 0 0 Z " fill="#EFC880" transform="translate(336,173)"/>
<path d="M0 0 C0.94672993 3.48602107 1.21651128 5.51266766 0 9 C-1.85508547 11.47344729 -3.88062172 13.75099614 -6 16 C-6 12.13525139 -4.65507584 9.79505542 -3 6.3125 C-2.443125 5.13300781 -1.88625 3.95351562 -1.3125 2.73828125 C-0.6628125 1.38283203 -0.6628125 1.38283203 0 0 Z " fill="#F4C773" transform="translate(352,176)"/>
<path d="M0 0 C0.66 0.33 1.32 0.66 2 1 C1.3503125 1.62648437 0.700625 2.25296875 0.03125 2.8984375 C-1.22171875 4.12433594 -1.22171875 4.12433594 -2.5 5.375 C-3.3353125 6.18710938 -4.170625 6.99921875 -5.03125 7.8359375 C-7.22431286 9.7589659 -7.22431286 9.7589659 -7 12 C-7.99 12.66 -8.98 13.32 -10 14 C-10.99 13.67 -11.98 13.34 -13 13 C-8.71 8.71 -4.42 4.42 0 0 Z " fill="#C2CFD9" transform="translate(235,149)"/>
<path d="M0 0 C9.59453303 2.89066059 9.59453303 2.89066059 13 6 C12.01 6.99 11.02 7.98 10 9 C8.33043913 7.69118353 6.66441696 6.37785174 5 5.0625 C4.071875 4.33160156 3.14375 3.60070312 2.1875 2.84765625 C1.465625 2.23792969 0.74375 1.62820312 0 1 C0 0.67 0 0.34 0 0 Z " fill="#F4C77A" transform="translate(296,63)"/>
<path d="M0 0 C3.66881155 0.70554068 6.70450534 2.27735506 10 4 C10 4.99 10 5.98 10 7 C9.01 7.33 8.02 7.66 7 8 C5.83035398 6.8572081 4.66435444 5.71068285 3.5 4.5625 C2.8503125 3.92441406 2.200625 3.28632812 1.53125 2.62890625 C0 1 0 1 0 0 Z " fill="#F1C880" transform="translate(323,31)"/>
<path d="M0 0 C0.66 0.99 1.32 1.98 2 3 C1.3203125 5.26171875 1.3203125 5.26171875 0.125 7.6875 C-0.45894531 8.89986328 -0.45894531 8.89986328 -1.0546875 10.13671875 C-1.52261719 11.05904297 -1.52261719 11.05904297 -2 12 C-2.66 12 -3.32 12 -4 12 C-3.52309796 10.37433394 -3.04340334 8.74948689 -2.5625 7.125 C-2.29566406 6.22007812 -2.02882813 5.31515625 -1.75390625 4.3828125 C-1 2 -1 2 0 0 Z " fill="#3E617E" transform="translate(121,322)"/>
<path d="M0 0 C0.99 0.33 1.98 0.66 3 1 C1.02 3.31 -0.96 5.62 -3 8 C-3.66 7.67 -4.32 7.34 -5 7 C-3.35 4.69 -1.7 2.38 0 0 Z " fill="#385B7D" transform="translate(115,148)"/>
<path d="M0 0 C0.95465783 2.16967689 1.14401212 3.56328793 0.3984375 5.82421875 C-0.35870385 7.5684743 -1.17609198 9.28627131 -2 11 C-2.66 11 -3.32 11 -4 11 C-3.52269162 9.5410574 -3.04308958 8.08286504 -2.5625 6.625 C-2.29566406 5.81289063 -2.02882813 5.00078125 -1.75390625 4.1640625 C-1 2 -1 2 0 0 Z " fill="#3E6081" transform="translate(412,319)"/>
<path d="M0 0 C0 3 0 3 -1.3125 4.38671875 C-2.875 5.59114583 -4.4375 6.79557292 -6 8 C-6.66 7.67 -7.32 7.34 -8 7 C-5.36 4.69 -2.72 2.38 0 0 Z " fill="#4D6C89" transform="translate(133,129)"/>
<path d="M0 0 C1.26706235 3.80118706 0.57172296 5.3850372 -1 9 C-1.99 9.33 -2.98 9.66 -4 10 C-2.8905928 6.51329166 -1.73662334 3.22515763 0 0 Z " fill="#3E6080" transform="translate(95,181)"/>
<path d="M0 0 C1.32 0.33 2.64 0.66 4 1 C1.03 3.475 1.03 3.475 -2 6 C-2 3 -2 3 0 0 Z " fill="#355B81" transform="translate(380,298)"/>
</svg>
